<svg version="1" xmlns="http://www.w3.org/2000/svg" width="682.667" height="682.667" viewBox="0 0 512.000000 512.000000"><path d="M241 1.1c-28.5 2.1-55.5 11.8-74.6 27-13.8 10.9-27 27.1-34.7 42.4-2.8 5.7-9.7 23.4-9.7 25.1 0 .2 5.7-5.3 12.8-12.4 25.8-26 53.7-43 84.2-51.5 16.8-4.7 41-6.1 58.3-3.2 36.4 5.9 72.7 26.5 102.5 58 5.1 5.4 9.2 9.3 9.2 8.8 0-2.4-5.4-16.4-9.4-24.5-17.3-34.5-47.2-57.4-86.6-66.4-8.8-2-34.7-4.7-40-4.2-.8 0-6.2.4-12 .9z"/><path d="M186.9 65.7c-3.5 1.8-6.4 4.3-8.4 7.1l-3 4.4-.3 19.6c-.4 22.3.3 25.3 6.5 31.6 5.1 5 12.2 7 22.8 6.4 11.7-.8 17.5-4.2 22.1-12.8 1.7-3.1 1.9-5.9 1.9-23 0-18.1-.2-19.8-2.2-23.5-5-9.4-11.1-12.5-24.6-12.5-8.2 0-10 .3-14.8 2.7zM210 82.9c.5 1.1 1 8.2 1 15.8 0 17.2-.5 18.3-8.6 18.3-9.6 0-9.4.3-9.4-17.8 0-11 .4-16.2 1.2-17 .7-.7 4-1.2 8-1.2 5.6 0 6.9.3 7.8 1.9zM249.6 65.6l-2.6 2.7v61.4l2.5 2.3c3.6 3.4 8.7 3.2 12.3-.3l2.7-2.7.3-27.3c.2-14.9 0-28.7-.3-30.6-1.5-7.7-9.6-10.7-14.9-5.5zM295.5 64.9c-2.2 1-5.2 3.1-6.7 4.7-5 5.3-6.1 9.7-6.6 25.4-.7 23 1.9 31 11.7 36.8 4.2 2.5 5.5 2.7 15.1 2.7 9.3 0 11.1-.3 15.4-2.5 2.8-1.5 6.1-4.3 8-6.8l3.1-4.4.3-20.1c.4-23.3-.3-26.4-7.1-32.2-5.2-4.5-9-5.5-20.2-5.5-6.6 0-10.1.5-13 1.9zm20.9 16.7c1.4.5 1.6 3 1.6 17 0 18.6.1 18.4-8.5 18.4s-8.5.2-8.5-18.5c0-12.1.3-16.5 1.3-16.8 1.8-.8 12.3-.8 14.1-.1z"/><path d="M122 102.1c0 .4 1.4 4.7 3.1 9.6 17.8 50.5 61.8 82 118.7 85 10.3.5 11.1.7 8.4 1.9-1.6.6-3.4 1.8-3.8 2.6-.5.7-1.1 9-1.4 18.5-.5 16.3-.6 17.3-2.9 19.7l-2.4 2.5-72.1.3-72.1.3-5 2.3c-17.2 7.9-21.8 28.5-9.5 42.5 5.7 6.4 11.4 8.5 25.2 9.3 13.9.8 18.2-.2 20.5-5.1 1.8-3.8 1.2-7.6-1.8-10.4-2.7-2.5-6.2-3.1-17.8-3.1-8.4 0-10-.3-11.9-2-4.3-4-3.7-11.4 1.1-13.9 1.6-.8 22.9-1.2 73.7-1.3 70.3-.3 71.6-.3 76.1-2.4 6.6-3.1 11.3-7.7 14-13.6 2.2-4.9 2.4-6.5 2.4-23.4 0-19.8-.2-20.5-6-23-2.8-1.3-2.6-1.3 4.2-1.4 16.6-.1 40.2-5 55.8-11.7 25.7-11 48.1-32.5 61.3-58.8 3.8-7.7 9.2-21.5 9.2-23.6 0-.6-5.3 4.3-11.7 10.8-18.4 18.6-36.7 31.9-57.5 41.8-23.3 11-39.4 14.8-63.8 14.9-24.7 0-42.1-4.1-65.5-15.4-21.2-10.2-38-22.6-57.2-42.2-6.2-6.3-11.3-11.1-11.3-10.7zM315.5 242.9c-6.2 2.7-7.9 10.2-3.2 14.9l2.7 2.7h52l2.6-2.6c3.6-3.6 3.6-9.2 0-12.8l-2.6-2.6-24.8-.2c-13.6-.1-25.6.2-26.7.6zM404.5 243.4c-3 1.3-5.5 5.1-5.5 8.2 0 .8.7 2.8 1.5 4.4 2.1 4.1 6.9 5.3 19.3 4.8 9.4-.3 10.4-.5 12.8-2.9 3.6-3.6 3.6-9.2 0-12.8-2.5-2.5-3.2-2.6-13.9-2.9-7.8-.1-12.1.2-14.2 1.2z"/><path d="M154 278.7c-6.1 2.3-8 9.9-3.6 15 2.3 2.6 2.9 2.8 12.9 3.1 12.4.5 17.1-.7 19.2-4.8.8-1.6 1.5-3.6 1.5-4.5 0-2.9-2.8-7.1-5.5-8.3-2.6-1.2-21.5-1.6-24.5-.5zM216.5 278.9c-6.1 2.6-7.7 10.4-3.1 15l2.6 2.6h79l2.7-2.7c3.7-3.7 3.7-8.9 0-12.6l-2.7-2.7-38.3-.2c-21-.1-39.1.2-40.2.6zM395.5 279.4c-7.1 3.1-7.1 12.7 0 16.1 2.5 1.1 6.6 1.5 17.2 1.4 16-.1 17.9-.5 20.6-4.1 2.8-3.7 2.4-8.5-.8-11.7-2.5-2.6-2.8-2.6-18.3-2.8-11.5-.2-16.5.1-18.7 1.1zM90.4 315c-4.7 1.9-6.8 8.5-4.3 13.2 2 3.7 6.9 4.8 21.2 4.8 7.4 0 14.8-.5 16.5-1.1 5.3-1.8 7.8-8.1 5.2-13-2.2-4-6-4.9-21.7-4.8-8.1 0-15.8.4-16.9.9zM154 314.7c-9.1 3.3-7.5 16 2.1 17.8 1.9.3 27.8.5 57.5.3 52.6-.3 54.3-.4 56.4-2.3 3.3-3 4.2-6.2 2.9-10.2-2.1-6.4-.8-6.3-62.1-6.2-30.4 0-56 .3-56.8.6zM313.8 315.5c-3.2 1.8-5.2 7.2-3.9 10.6.5 1.3 1.9 3.3 3.1 4.4 2 1.8 3.6 2 14.6 2 12.1 0 12.4-.1 15.1-2.7 3.9-4 3.8-9.1-.5-12.9-3.2-2.8-3.5-2.9-14.5-2.9-7.8.1-12 .5-13.9 1.5zM249.7 388c-5.3 4.2-4.2 13.1 2 15.6 9.6 4.1 17.7-7.4 10.4-14.7-3.6-3.5-8.6-3.9-12.4-.9zM219.5 427.2c-2.7 21.6-17.4 42.2-33.6 47.3-3.8 1.2 5.4 1.4 69.6 1.4 62.1 0 73.4-.2 70.3-1.3-9.3-3.3-18.6-11.1-24.6-20.7-3.5-5.5-7.8-16.1-8.6-21.2-.3-2-.8-5.3-1.1-7.2l-.6-3.5H220.2l-.7 5.2z"/></svg>